<svg width="32" height="32" viewBox="0 0 32 32" fill="none" xmlns="http://www.w3.org/2000/svg">
<g id="Media / Icon">
<g id="Icon">
<path d="M21.8579 20.1421C20.8762 21.1238 18.8104 23.1896 17.4136 24.5864C16.6326 25.3674 15.3669 25.3669 14.5858 24.5858C13.2133 23.2133 11.1886 21.1886 10.1421 20.1421C6.90693 16.9069 6.90693 11.6616 10.1421 8.42641C13.3773 5.1912 18.6227 5.1912 21.8579 8.42641C25.0931 11.6616 25.0931 16.9069 21.8579 20.1421Z" stroke="#1A1B1C" stroke-width="1.3" stroke-linecap="round" stroke-linejoin="round"/>
<path d="M19.1066 14.2843C19.1066 16 17.7157 17.3909 16 17.3909C14.2843 17.3909 12.8934 16 12.8934 14.2843C12.8934 12.5685 14.2843 11.1777 16 11.1777C17.7157 11.1777 19.1066 12.5685 19.1066 14.2843Z" stroke="#1A1B1C" stroke-width="1.3" stroke-linecap="round" stroke-linejoin="round"/>
</g>
</g>
</svg>
