<svg width="21" height="21" viewBox="0 0 21 21" fill="none" xmlns="http://www.w3.org/2000/svg">
<g id="Icon / Left" clip-path="url(#clip0_626_2407)">
<path id="Vector" d="M20.2151 10.7303C20.2151 10.0506 20.16 9.36713 20.0424 8.69838H10.6101V12.5492H16.0116C15.7874 13.7912 15.0672 14.8898 14.0127 15.588V18.0866H17.2351C19.1275 16.3449 20.2151 13.7728 20.2151 10.7303Z" fill="#4285F4"/>
<path id="Vector_2" d="M10.6101 20.5007C13.3071 20.5007 15.5816 19.6151 17.2388 18.0866L14.0163 15.5879C13.1197 16.1979 11.9623 16.5433 10.6138 16.5433C8.0049 16.5433 5.79288 14.7832 4.9992 12.4169H1.67383V14.9927C3.37142 18.3695 6.82907 20.5007 10.6101 20.5007Z" fill="#34A853"/>
<path id="Vector_3" d="M4.99556 12.4169C4.57667 11.1749 4.57667 9.83007 4.99556 8.58811V6.01232H1.67386C0.255524 8.83797 0.255524 12.167 1.67386 14.9927L4.99556 12.4169Z" fill="#FBBC04"/>
<path id="Vector_4" d="M10.6101 4.45803C12.0358 4.43599 13.4137 4.97246 14.4462 5.95721L17.3012 3.10217C15.4934 1.40457 13.094 0.471263 10.6101 0.500659C6.82907 0.500659 3.37142 2.63184 1.67383 6.01232L4.99553 8.58811C5.78553 6.21809 8.00122 4.45803 10.6101 4.45803Z" fill="#EA4335"/>
</g>
<defs>
<clipPath id="clip0_626_2407">
<rect width="20" height="20" fill="white" transform="translate(0.409912 0.499985)"/>
</clipPath>
</defs>
</svg>
