<svg width="20" height="20" viewBox="0 0 20 20" fill="none" xmlns="http://www.w3.org/2000/svg">
<g id="Icon-left">
<path id="Icon" d="M11.6464 8.44444H15.3517C16.508 8.44444 17.2601 9.66138 16.743 10.6957L14.0208 16.1401C13.7573 16.6671 13.2186 17 12.6294 17H9.50454C9.37736 17 9.25065 16.9844 9.12726 16.9536L6.20193 16.2222M11.6464 8.44444V4.55556C11.6464 3.69645 10.9499 3 10.0908 3H10.0166C9.62802 3 9.31304 3.31498 9.31304 3.70352C9.31304 4.25909 9.14859 4.80223 8.84042 5.26449L6.20193 9.22222V16.2222M11.6464 8.44444H10.0908M6.20193 16.2222H4.64638C3.78727 16.2222 3.09082 15.5258 3.09082 14.6667V10C3.09082 9.14089 3.78727 8.44444 4.64638 8.44444H6.59082" stroke="#737373" stroke-width="1.2" stroke-linecap="round" stroke-linejoin="round"/>
</g>
</svg>
