<svg xmlns="http://www.w3.org/2000/svg" width="20" height="20" viewBox="0 0 20 20" fill="none">
    <path d="M14.1007 12.8995C13.5075 13.4927 12.3487 14.6515 11.4138 15.5863C10.6328 16.3674 9.36738 16.3672 8.58633 15.5862C7.66878 14.6686 6.53036 13.5302 5.89966 12.8995C3.63501 10.6348 3.63501 6.96313 5.89966 4.69848C8.1643 2.43384 11.836 2.43384 14.1007 4.69848C16.3653 6.96313 16.3653 10.6348 14.1007 12.8995Z" stroke="#DD0000" stroke-width="1.67" stroke-linecap="round" stroke-linejoin="round"/>
    <path d="M12.1748 8.79899C12.1748 10 11.2012 10.9736 10.0002 10.9736C8.79915 10.9736 7.82554 10 7.82554 8.79899C7.82554 7.59798 8.79915 6.62437 10.0002 6.62437C11.2012 6.62437 12.1748 7.59798 12.1748 8.79899Z" stroke="#DD0000" stroke-width="1.67" stroke-linecap="round" stroke-linejoin="round"/>
    </svg>