<svg width="130" height="16" viewBox="0 0 130 16" fill="none" xmlns="http://www.w3.org/2000/svg">
<path d="M13.158 11.8141C12.9971 12.7445 12.5285 13.535 11.752 14.1855C10.9825 14.8361 10.1361 15.1614 9.21272 15.1614H2.77011C1.95167 15.1614 1.28712 14.899 0.776471 14.3744C0.258824 13.8358 0 13.1817 0 12.4122C0 12.3143 0.00349762 12.2164 0.0104929 12.1184C0.0174881 12.0135 0.0279809 11.9121 0.0419714 11.8141L0.975835 6.32638H5.2779L4.49094 10.8593H9.02385L9.2442 9.6736H7.32401L7.90112 6.32638H14.1129L13.158 11.8141ZM14.3227 5.1302H1.19619L1.36407 4.17535C1.51797 3.25198 1.97965 2.46502 2.74913 1.81446C3.5256 1.1639 4.37552 0.838623 5.29889 0.838623H15.0887L14.3227 5.1302Z" fill="#DD0000"/>
<path d="M22.4757 15.1614L22.3288 13.2517H18.2681L17.4601 15.1614H13.1895L16.9355 6.32638H21.2375L19.821 9.6736H22.0875L21.8251 6.32638H26.1272L26.7673 15.1614H22.4757ZM17.4391 5.1302L19.2754 0.838623H25.718L26.0328 5.1302H17.4391Z" fill="#DD0000"/>
<path d="M42.8948 15.1614H38.6032L39.6525 9.16995L35.1406 15.1614L32.7272 9.16995L31.6779 15.1614H27.4073L28.9288 6.32638H44.4477L42.8948 15.1614ZM29.1491 5.1302L29.9046 0.838623H34.2067L35.9275 5.1302H29.1491ZM44.6681 5.1302H37.8897L41.132 0.838623H45.434L44.6681 5.1302Z" fill="#DD0000"/>
<path d="M57.0182 9.6736H49.3794L49.1695 10.8593H56.8083L56.0423 15.1614H44.1329L45.6544 6.32638H57.5953L57.0182 9.6736ZM57.8051 5.1302H45.8748L46.6302 0.838623H58.5711L57.8051 5.1302Z" fill="#DD0000"/>
<path d="M71.9285 6.32638C71.8446 6.81605 71.4388 7.37217 70.7113 7.99475C71.152 8.54038 71.3724 9.01955 71.3724 9.43227C71.3724 9.46725 71.3689 9.50572 71.3619 9.54769C71.3619 9.58966 71.3584 9.63163 71.3514 9.6736L70.9736 11.8141C70.8128 12.7445 70.3441 13.535 69.5676 14.1855C68.7981 14.8361 67.9517 15.1614 67.0283 15.1614H57.27L58.0045 10.8593H66.8395L67.0598 9.6736H62.9991L63.5657 6.32638H71.9285ZM72.3587 3.60874C72.3587 3.70667 72.3517 3.8011 72.3377 3.89204C72.3307 3.98298 72.3202 4.07742 72.3062 4.17535L72.1384 5.1302H59.0118L59.7673 0.838623H69.5571C70.3756 0.838623 71.0471 1.10094 71.5717 1.62559C72.0964 2.15023 72.3587 2.81128 72.3587 3.60874Z" fill="#DD0000"/>
<path d="M76.8496 9.6736L76.6398 10.8593H81.1727L81.3931 9.6736H76.8496ZM85.7371 9.07551C85.7371 9.17344 85.7301 9.27488 85.7161 9.3798C85.7091 9.47774 85.6986 9.57567 85.6846 9.6736L85.3069 11.8141C85.146 12.7445 84.6773 13.535 83.9008 14.1855C83.1314 14.8361 82.2849 15.1614 81.3616 15.1614H74.919C74.1005 15.1614 73.436 14.899 72.9253 14.3744C72.4077 13.8358 72.1488 13.1747 72.1488 12.3913C72.1488 12.2933 72.1523 12.1989 72.1593 12.1079C72.1663 12.01 72.1768 11.9121 72.1908 11.8141L73.1247 6.32638H82.9145C83.7469 6.32638 84.4255 6.58871 84.9501 7.11335C85.4748 7.63799 85.7371 8.29205 85.7371 9.07551ZM86.4716 5.1302H73.345L73.5129 4.17535C73.6668 3.25198 74.1285 2.46502 74.898 1.81446C75.6745 1.1639 76.5244 0.838623 77.4477 0.838623H87.2376L86.4716 5.1302Z" fill="#DD0000"/>
<path d="M99.6401 11.8141C99.4792 12.7445 99.0106 13.535 98.2341 14.1855C97.4646 14.8361 96.6182 15.1614 95.6948 15.1614H89.2522C88.4338 15.1614 87.7692 14.899 87.2586 14.3744C86.7409 13.8358 86.4821 13.1747 86.4821 12.3913C86.4821 12.2933 86.4856 12.1989 86.4926 12.1079C86.4996 12.01 86.5101 11.9121 86.5241 11.8141L87.4579 6.32638H91.76L90.973 10.8593H95.5059L96.2929 6.32638H100.595L99.6401 11.8141ZM101.025 3.60874C101.025 3.70667 101.018 3.8011 101.004 3.89204C100.997 3.98298 100.987 4.07742 100.973 4.17535L100.805 5.1302H87.6783L87.8462 4.17535C88 3.25198 88.4617 2.46502 89.2312 1.81446C90.0077 1.1639 90.8576 0.838623 91.781 0.838623H98.2236C99.042 0.838623 99.7136 1.10094 100.238 1.62559C100.763 2.15023 101.025 2.81128 101.025 3.60874Z" fill="#DD0000"/>
</svg>
