<svg width="88" height="33" viewBox="0 0 88 33" fill="none" xmlns="http://www.w3.org/2000/svg">
<g id="Logo Mark">
<g id="Group 4">
<g id="Connect">
<path d="M26.5908 32.4456C23.3078 32.4456 21.6926 30.5284 21.6926 27.6525V27.5475C21.6926 24.6585 23.7412 22.7544 26.4857 22.7544C28.9282 22.7544 30.6222 23.8837 30.8455 26.3656H28.0747C27.9696 25.407 27.4444 24.8817 26.4989 24.8817C25.2907 24.8817 24.5291 25.8272 24.5291 27.5343V27.6394C24.5291 29.3334 25.2513 30.292 26.5383 30.292C27.4837 30.292 28.1535 29.793 28.2848 28.7556H30.9637C30.7798 31.185 29.0202 32.4456 26.5908 32.4456Z" fill="#DD0000"/>
<path d="M36.6207 30.3314C37.947 30.3314 38.7743 29.3071 38.7743 27.6263V27.5212C38.7743 25.8535 37.9339 24.8686 36.6076 24.8686C35.2813 24.8686 34.454 25.8272 34.454 27.5343V27.6394C34.454 29.3465 35.3207 30.3314 36.6207 30.3314ZM36.5682 32.4456C33.5347 32.4456 31.6438 30.4759 31.6438 27.6525V27.5475C31.6438 24.6847 33.7974 22.7675 36.6076 22.7675C39.4703 22.7675 41.5845 24.5666 41.5845 27.4818V27.5869C41.5845 30.4759 39.6016 32.4456 36.5682 32.4456Z" fill="#DD0000"/>
<path d="M42.9021 32.288V22.8988H45.9356L48.9427 28.1909V22.8988H51.2933V32.288H48.6932L45.2658 26.3919V32.288H42.9021Z" fill="#DD0000"/>
<path d="M53.11 32.288V22.8988H56.1435L59.1506 28.1909V22.8988H61.5012V32.288H58.9011L55.4737 26.3919V32.288H53.11Z" fill="#DD0000"/>
<path d="M63.3179 32.288V22.8988H69.805V24.9736H65.9968V26.5888H69.0303V28.5061H65.9968V30.2132H70.0151V32.288H63.3179Z" fill="#DD0000"/>
<path d="M75.6426 32.4456C72.3597 32.4456 70.7445 30.5284 70.7445 27.6525V27.5475C70.7445 24.6585 72.793 22.7544 75.5376 22.7544C77.9801 22.7544 79.6741 23.8837 79.8973 26.3656H77.1265C77.0215 25.407 76.4962 24.8817 75.5507 24.8817C74.3426 24.8817 73.5809 25.8272 73.5809 27.5343V27.6394C73.5809 29.3334 74.3032 30.292 75.5901 30.292C76.5356 30.292 77.2053 29.793 77.3366 28.7556H80.0155C79.8317 31.185 78.072 32.4456 75.6426 32.4456Z" fill="#DD0000"/>
<path d="M82.8654 32.288V24.9736H80.436V22.8988H87.9999V24.9736H85.5706V32.288H82.8654Z" fill="#DD0000"/>
</g>
<path id="Vector" fill-rule="evenodd" clip-rule="evenodd" d="M50.2587 19.3086H54.8476L56.6312 11.8602C56.9155 10.8506 57.1984 10.103 57.5903 9.7422C58.5243 8.88333 61.0332 9.01782 61.0332 9.01782L62.0484 4.8069C60.4558 4.81525 57.9905 4.78557 56.4596 5.20388C55.5748 5.44596 54.6408 6.1249 54.1102 6.67723C53.141 7.6859 52.5622 9.77328 52.5622 9.77328L50.2587 19.3086ZM10.5708 8.61713H27.3449C28.3235 8.64171 29.1072 9.01735 29.4689 9.52099C29.9095 10.135 30.3793 11.0505 29.6549 12.778C28.8814 14.6223 27.4998 15.1742 26.0575 15.2173H23.0543L24.2925 10.0283H19.6735L15.5432 27.3539H20.1377L22.0632 19.3044C22.0632 19.3044 23.3984 19.31 25.1282 19.3109C26.4643 19.2826 28.0318 19.1254 29.5111 18.3551C31.1106 17.5227 32.2023 16.1332 32.8864 14.8894C33.5175 13.7416 33.9243 11.862 34.0193 10.8274C34.1028 9.92214 34.2187 8.40195 33.1094 6.92024C32.6049 6.24594 31.4988 5.41999 30.3784 5.15565C29.155 4.86765 27.4497 4.85189 27.4497 4.85189H9.98882C7.30134 4.87693 5.87112 5.80583 5.07206 6.62297C4.20901 7.50643 3.76751 8.72194 3.77169 9.7807C3.77586 10.7838 4.04252 11.85 4.62593 12.4932C5.15647 13.0775 6.0441 13.7254 7.80869 13.8432H10.8737C10.8737 13.8432 11.2971 13.8567 11.5303 13.9605C11.7562 14.0621 11.9227 14.3399 11.8833 14.6107C11.835 14.9405 11.727 15.3578 10.6079 15.4033H1.88976L0.409912 19.329H10.8686C12.2617 19.3109 14.8355 19.0517 16.014 17.0255C16.4527 16.271 16.8436 14.8598 16.858 13.8121C16.8728 12.752 16.5074 12.0401 16.2927 11.6761C16.0098 11.1956 15.4737 10.6424 14.3982 10.2829C13.8385 10.0956 12.6151 10.0603 12.6151 10.0603H9.73561C9.17863 10.0603 8.75012 9.89246 8.80716 9.33595C8.83963 9.01967 9.08913 8.75858 9.4017 8.66721C9.63219 8.59904 10.5708 8.61713 10.5708 8.61713ZM43.7471 7.84683C42.6067 7.85889 41.6175 8.29111 40.6548 9.21909C39.7393 10.1016 39.25 11.4743 39.1536 12.6857C39.0938 13.4346 39.3052 14.4776 39.8042 15.1144C40.294 15.7395 41.2859 16.2139 42.2204 16.1903C43.6381 16.155 44.6194 15.7219 45.4032 14.8635C46.3233 13.8562 46.9285 12.3453 46.8923 10.9137C46.8724 10.1605 46.711 9.393 46.0418 8.72287C45.3712 8.05274 44.4562 7.83941 43.7471 7.84683L44.3421 4.43219C46.2435 4.40761 48.3364 4.92794 49.6735 6.21672C51.0114 7.5055 51.2883 9.21167 51.2651 10.6113C51.2363 12.3592 50.6293 14.7615 48.4853 17.0742C46.596 19.1115 43.3084 19.9031 41.0299 19.7997C38.7515 19.6963 37.0662 18.9756 35.8289 17.6994C34.7451 16.5817 34.3551 15.2762 34.3551 13.6271C34.3551 12.1709 34.8202 10.2811 36.2189 8.42096C37.8597 6.23898 40.9993 4.47578 44.3426 4.43265L43.7471 7.84683ZM64.2929 0.73465H68.9189L67.9153 4.87739H71.426L70.4604 8.97654H66.9498L65.9091 13.5339C65.7426 14.4623 65.9036 14.9354 66.4299 15.2489C66.6465 15.3782 67.3774 15.4344 67.3774 15.4344H77.3709C78.4858 15.4163 79.2857 15.3156 79.321 14.5741C79.359 13.8121 78.4116 13.8312 78.4116 13.8312H75.5687C74.0824 13.757 72.8377 13.3479 72.2436 12.7167C71.7302 12.1714 71.259 11.3607 71.2961 9.78162C71.3379 7.99894 72.2807 6.7352 72.6893 6.34518C73.0978 5.95516 74.6087 4.84029 76.8005 4.87739H87.1724L85.7296 8.6111H77.2216C76.6646 8.62965 76.4109 8.71267 76.256 8.90837C76.0946 9.11242 76.0167 9.43334 76.1257 9.68887C76.2273 9.92632 76.4791 10.0232 77.1845 10.0603H79.8413C81.1973 10.1345 82.3247 10.3469 82.999 10.9146C83.614 11.4321 84.2067 12.1032 84.2067 13.8312C84.2067 15.7826 83.2439 17.0468 82.5909 17.7137C81.7822 18.5397 80.6589 19.144 77.2967 19.3114H64.9626C63.6247 19.2924 62.5288 19.3485 61.5071 18.1784C60.4855 17.0084 60.8324 15.5461 60.9312 14.729L64.2929 0.73465Z" fill="#DD0000"/>
</g>
</g>
</svg>
